<svg xmlns="http://www.w3.org/2000/svg" viewBox="0 0 512 512" width="100%" height="100%">
  <defs>
    <linearGradient id="circleGrad" x1="0%" y1="0%" x2="100%" y2="100%">
      <stop offset="0%" stop-color="#2dd4bf" />
      <stop offset="50%" stop-color="#0ea5e9" />
      <stop offset="100%" stop-color="#1e3a8a" />
    </linearGradient>
    <linearGradient id="ringGrad" x1="0%" y1="0%" x2="100%" y2="100%">
      <stop offset="0%" stop-color="#5eead4" />
      <stop offset="50%" stop-color="#38bdf8" />
      <stop offset="100%" stop-color="#2563eb" />
    </linearGradient>
    <filter id="dropShadow" x="-20%" y="-20%" width="140%" height="140%">
      <feDropShadow dx="0" dy="6" stdDeviation="10" flood-color="#000000" flood-opacity="0.3" />
    </filter>
  </defs>
  <circle cx="256" cy="256" r="216" fill="url(#circleGrad)" filter="url(#dropShadow)" />
  <circle cx="256" cy="256" r="216" fill="none" stroke="url(#ringGrad)" stroke-width="12" stroke-linecap="round" stroke-dasharray="1000" stroke-dashoffset="120" transform="rotate(-90 256 256)" opacity="0.85" />
  <g fill="#ffffff">
    <path d="M 120 250 L 200 180 L 280 250 L 256 272 L 200 222 L 144 272 Z" />
    <rect x="156" y="256" width="88" height="96" rx="4" />
  </g>
  <g fill="#0ea5e9">
    <rect x="172" y="276" width="24" height="24" rx="4" />
    <rect x="204" y="276" width="24" height="24" rx="4" />
    <rect x="172" y="308" width="24" height="24" rx="4" />
    <rect x="204" y="308" width="24" height="24" rx="4" />
  </g>
  <g fill="none" stroke="#ffffff" stroke-width="12" stroke-linecap="round">
    <path d="M 305 272 Q 330 296 305 320" />
    <path d="M 335 242 Q 375 296 335 350" />
    <path d="M 365 212 Q 420 296 365 380" />
  </g>
  <g transform="translate(325, 125)" filter="url(#dropShadow)">
    <circle cx="36" cy="36" r="28" fill="#ffffff" />
    <path d="M 18 48 L 4 62 L 24 50 Z" fill="#ffffff" />
    <text x="36" y="44" font-family="Arial, sans-serif" font-weight="900" font-size="20" fill="#0ea5e9" text-anchor="middle">AI</text>
  </g>
</svg>
